<svg 
          width="60" 
          height="53" fill="none" 
          xmlns="http://www.w3.org/2000/svg">
          <path d="M 17.472657184211574 3.880357614411557 L 16.25390578289421 7.571428571428571 L 7.5 7.571428571428571 C 3.363281366776447 7.571428571428571 0 10.966741189317174 0 15.142857142857142 L 0 45.42857142857143 C 0 49.6046873821114 3.363281366776447 53 7.5 53 L 52.5 53 C 56.63671863322355 53 60 49.6046873821114 60 45.42857142857143 L 60 15.142857142857142 C 60 10.966741189317174 56.63671863322355 7.571428571428571 52.5 7.571428571428571 L 43.74609188157685 7.571428571428571 L 42.52734281578842 3.880357614411557 C 41.76562406578842 1.5616075554672553 39.62109293256487 0 37.19531156578842 0 L 22.804688434211577 0 C 20.37890706743513 0 18.234375934211574 1.5616075554672553 17.472657184211574 3.880357614411557 Z M 30 18.928571428571427 C 32.98368551293198 18.928571428571427 35.845167393587076 20.125123660696488 37.954951695033486 22.255001145966197 C 40.0647359964799 24.384878631235907 41.25 27.27361272027819 41.25 30.285714285714285 C 41.25 33.297815851150375 40.0647359964799 36.18654994019266 37.954951695033486 38.31642742546237 C 35.845167393587076 40.44630491073208 32.98368551293198 41.64285714285714 30 41.64285714285714 C 27.01631448706802 41.64285714285714 24.154832606412924 40.44630491073208 22.045048304966517 38.31642742546237 C 19.93526400352011 36.18654994019266 18.75 33.297815851150375 18.75 30.285714285714285 C 18.75 27.27361272027819 19.93526400352011 24.384878631235907 22.045048304966517 22.255001145966197 C 24.154832606412924 20.125123660696488 27.01631448706802 18.92857142857143 30 18.928571428571427 Z" fill="rgb(250.00000029802322,245.00000059604645,255)"/>
        </svg>