<svg width="70" height="63" viewBox="0 0 70 63" fill="none" xmlns="http://www.w3.org/2000/svg">
<g filter="url(#filter0_d_24_67)">
<path d="M22.4727 7.88036L21.2539 11.5714H12.5C8.36328 11.5714 5 14.9667 5 19.1429V49.4286C5 53.6047 8.36328 57 12.5 57H57.5C61.6367 57 65 53.6047 65 49.4286V19.1429C65 14.9667 61.6367 11.5714 57.5 11.5714H48.7461L47.5273 7.88036C46.7656 5.56161 44.6211 4 42.1953 4H27.8047C25.3789 4 23.2344 5.56161 22.4727 7.88036ZM35 22.9286C37.9837 22.9286 40.8452 24.1251 42.955 26.255C45.0647 28.3849 46.25 31.2736 46.25 34.2857C46.25 37.2978 45.0647 40.1865 42.955 42.3164C40.8452 44.4463 37.9837 45.6429 35 45.6429C32.0163 45.6429 29.1548 44.4463 27.045 42.3164C24.9353 40.1865 23.75 37.2978 23.75 34.2857C23.75 31.2736 24.9353 28.3849 27.045 26.255C29.1548 24.1251 32.0163 22.9286 35 22.9286Z" fill="#FAF5FF"/>
</g>
<defs>
<filter id="filter0_d_24_67" x="0" y="0" width="70" height="63" filterUnits="userSpaceOnUse" color-interpolation-filters="sRGB">
<feFlood flood-opacity="0" result="BackgroundImageFix"/>
<feColorMatrix in="SourceAlpha" type="matrix" values="0 0 0 0 0 0 0 0 0 0 0 0 0 0 0 0 0 0 127 0" result="hardAlpha"/>
<feOffset dy="1"/>
<feGaussianBlur stdDeviation="2"/>
<feComposite in2="hardAlpha" operator="out"/>
<feColorMatrix type="matrix" values="0 0 0 0 0 0 0 0 0 0 0 0 0 0 0 0 0 0 0.25 0"/>
<feBlend mode="normal" in2="BackgroundImageFix" result="effect1_dropShadow_24_67"/>
<feBlend mode="normal" in="SourceGraphic" in2="effect1_dropShadow_24_67" result="shape"/>
</filter>
</defs>
</svg>
